# xmcd CD database file
#
# Track frame offsets:
#	150
#	20642
#	40460
#	59655
#	75910
#	92710
#	112045
#	130765
#	149275
#	169457
#	188907
#	207367
#	225097
#	242222
#	261002
#
# Disc length: 3710 seconds
#
# Revision: 1
# Processed by: cddbd v1.5.1PL2 Copyright (c) Steve Scherf et al.
# Submitted via: CDex 1.51
#
DISCID=d10e7c0f
DTITLE=As One - vol. II
DYEAR=2001
DGENRE=R&B
TTITLE0=천만에요
TTITLE1=행복한 날들
TTITLE2=SOMEDAY
TTITLE3=ALWAYS
TTITLE4=투정
TTITLE5=소망
TTITLE6=단(斷)
TTITLE7=원하고 원망하죠
TTITLE8=MAMA
TTITLE9=신기루
TTITLE10=보헤미안
TTITLE11=FOREVER AS ONE
TTITLE12=그대 없는 내가 그렇죠
TTITLE13=비밀
TTITLE14=DON'T GO AWAY
EXTD=YEAR: 2001
EXTT0=
EXTT1=
EXTT2=
EXTT3=
EXTT4=
EXTT5=
EXTT6=
EXTT7=
EXTT8=
EXTT9=
EXTT10=
EXTT11=
EXTT12=
EXTT13=
EXTT14=
PLAYORDER=
